<?xml version="1.0" standalone="no"?>
<!DOCTYPE svg PUBLIC "-//W3C//DTD SVG 20010904//EN"
 "http://www.w3.org/TR/2001/REC-SVG-20010904/DTD/svg10.dtd">
<svg version="1.0" xmlns="http://www.w3.org/2000/svg"
 width="480.000000pt" height="480.000000pt" viewBox="0 0 480.000000 480.000000"
 preserveAspectRatio="xMidYMid meet">
<metadata>
Created by potrace 1.11, written by Peter Selinger 2001-2013
</metadata>
<g transform="translate(0.000000,480.000000) scale(0.100000,-0.100000)"
fill="#000000" stroke="none">
<path d="M430 3492 c-91 -10 -102 -16 -241 -154 l-68 -67 -1 -172 c-2 -234
-11 -223 184 -227 l146 -3 2 -42 c1 -23 2 -53 3 -67 1 -14 4 -31 8 -37 4 -6 7
-22 6 -34 0 -13 2 -78 6 -144 3 -66 8 -271 10 -455 5 -436 9 -529 25 -562 l13
-28 201 0 201 1 75 70 c41 39 92 85 113 102 l37 31 0 251 c0 137 -4 277 -10
310 -10 65 -19 171 -24 280 -2 39 -7 112 -10 164 -4 52 -4 111 -1 133 6 36 8
38 45 38 34 0 46 8 112 73 40 40 88 90 106 110 l33 37 -1 164 c-1 142 -4 168
-21 195 -17 28 -24 31 -66 32 -244 2 -863 3 -883 1z"/>
<path d="M2020 3483 c0 -4 -28 -9 -62 -10 -35 -1 -109 -4 -165 -5 l-102 -4
-31 -34 c-17 -19 -49 -60 -70 -91 -21 -31 -48 -59 -59 -62 -21 -5 -21 -6 -21
-874 0 -851 0 -869 20 -901 l20 -33 333 4 c268 3 348 7 417 21 47 10 99 18
115 19 17 1 32 4 35 7 11 11 50 30 61 30 7 0 31 17 54 37 23 21 57 49 76 63
42 31 89 80 89 92 0 5 11 19 24 31 28 26 80 125 84 160 1 4 8 20 15 35 24 45
37 96 37 141 0 61 -19 180 -35 224 -8 20 -12 37 -9 37 4 0 2 6 -4 13 -5 6 -12
23 -14 36 -3 24 -14 40 -71 103 -38 42 -80 125 -67 133 6 3 10 13 10 22 0 9
14 46 31 82 62 129 68 154 66 271 -2 62 -7 113 -14 121 -6 8 -14 31 -18 51 -9
47 -105 141 -192 188 -35 18 -63 36 -63 41 0 4 -15 11 -32 15 -18 4 -35 8 -38
9 -28 7 -141 16 -257 19 -78 3 -147 7 -153 11 -5 3 -10 3 -10 -2z m148 -1342
c12 -10 22 -21 22 -25 0 -4 9 -16 20 -28 29 -32 25 -38 -24 -38 -34 0 -46 4
-49 18 -25 90 -15 114 31 73z"/>
<path d="M3146 3434 c-6 -6 -21 -16 -32 -22 -18 -10 -74 -53 -124 -96 -50 -43
-47 14 -46 -943 1 -490 4 -894 7 -897 3 -3 14 -7 25 -9 10 -1 24 -5 29 -8 11
-7 101 -11 205 -10 36 0 207 1 381 2 303 2 319 3 362 24 25 12 61 33 81 48 19
15 38 27 41 27 7 0 125 90 206 157 47 40 86 88 150 183 20 30 45 62 54 70 14
12 34 46 40 70 0 3 8 19 18 36 31 59 76 181 73 200 -2 10 1 22 5 25 8 5 22
121 20 157 -2 22 -2 89 -1 117 2 34 2 38 -4 85 -6 59 -24 149 -31 161 -4 5 -8
17 -10 26 -23 115 -106 288 -159 332 -9 7 -16 18 -16 23 0 26 -119 123 -190
156 -96 43 -203 80 -260 88 -77 11 -370 10 -370 -1 0 -6 -3 -6 -8 0 -10 15
-431 14 -446 -1z m623 -718 c53 -11 92 -35 149 -93 42 -44 105 -138 92 -138
-1 0 1 -25 5 -55 7 -49 7 -86 1 -207 0 -18 -5 -33 -9 -33 -4 0 -7 -6 -6 -12 1
-7 1 -18 0 -24 -2 -18 -53 -48 -86 -50 -16 -1 -37 -4 -45 -6 -8 -3 -28 -9 -45
-14 -16 -5 -66 -9 -110 -9 l-80 0 -2 95 c-1 52 -7 195 -13 318 -6 122 -9 225
-6 230 5 9 106 8 155 -2z"/>
</g>
</svg>
